<svg width="36" height="36" viewBox="0 0 36 36" fill="none" xmlns="http://www.w3.org/2000/svg">
<g clip-path="url(#clip0_1752_12073)">
<path d="M32 5H4C3.795 5 3.593 5.015 3.396 5.045L3.392 6.799L0.662004 6.795C0.229151 7.44884 -0.00113204 8.21587 4.18442e-06 9V27C4.18442e-06 28.0609 0.421432 29.0783 1.17158 29.8284C1.92172 30.5786 2.93914 31 4 31H32C33.0609 31 34.0783 30.5786 34.8284 29.8284C35.5786 29.0783 36 28.0609 36 27V9C36 7.93913 35.5786 6.92172 34.8284 6.17157C34.0783 5.42143 33.0609 5 32 5V5Z" fill="#00247D"/>
<path d="M8.99991 26.0231L7.77791 27.1521L7.89891 25.4921L6.25391 25.2411L7.62691 24.3011L6.79791 22.8581L8.38891 23.3461L8.99991 21.7971L9.61191 23.3461L11.2029 22.8581L10.3729 24.3011L11.7469 25.2411L10.1019 25.4921L10.2229 27.1521L8.99991 26.0231ZM27.9499 9.56212L27.1509 10.3001L27.2299 9.21412L26.1529 9.05012L27.0519 8.43512L26.5099 7.49112L27.5499 7.81012L27.9499 6.79712L28.3509 7.81012L29.3919 7.49112L28.8489 8.43512L29.7469 9.05012L28.6709 9.21412L28.7499 10.3001L27.9499 9.56212ZM23.9499 15.5621L23.1509 16.3011L23.2299 15.2151L22.1529 15.0511L23.0519 14.4351L22.5099 13.4911L23.5499 13.8101L23.9499 12.7971L24.3509 13.8101L25.3919 13.4911L24.8489 14.4351L25.7469 15.0511L24.6709 15.2151L24.7499 16.3011L23.9499 15.5621ZM32.9499 13.5621L32.1509 14.3011L32.2299 13.2151L31.1529 13.0511L32.0519 12.4351L31.5099 11.4911L32.5499 11.8101L32.9499 10.7971L33.3509 11.8101L34.3919 11.4911L33.8489 12.4351L34.7469 13.0511L33.6709 13.2151L33.7499 14.3011L32.9499 13.5621ZM27.9499 27.5621L27.1509 28.3011L27.2299 27.2151L26.1529 27.0511L27.0519 26.4351L26.5099 25.4911L27.5499 25.8101L27.9499 24.7971L28.3509 25.8101L29.3919 25.4911L28.8489 26.4351L29.7469 27.0511L28.6709 27.2151L28.7499 28.3011L27.9499 27.5621ZM30.9999 16.0001L31.2939 16.5961L31.9509 16.6911L31.4759 17.1541L31.5879 17.8091L30.9999 17.5001L30.4119 17.8091L30.5239 17.1541L30.0489 16.6911L30.7059 16.5961L30.9999 16.0001Z" fill="white"/>
<path d="M19 18V5H4C3.68 5 3.396 5.045 3.396 5.045L3.392 6.799L0.662003 6.795C0.662003 6.795 0.620003 6.854 0.535003 7C0.183716 7.60795 -0.000836445 8.29786 2.84992e-06 9V18H19Z" fill="#00247D"/>
<path d="M19 5H16.669L12 8.269V5H7V7.569L3.396 5.045C2.79485 5.1348 2.22261 5.36239 1.724 5.71L6.426 9H4.69L0.967 6.391C0.857207 6.51933 0.755351 6.65425 0.662 6.795L3.813 9H0V14H3.885L0 16.766V18H3.332L7 15.432V18H12V14.731L16.668 18H19V15.971L16.185 14H19V9H16.186L19 7.029V5Z" fill="#EEEEEE"/>
<path d="M11 5H8V10H0V13H8V18H11V13H19V10H11V5Z" fill="#CF1B2B"/>
<path d="M18.9999 5H17.5389L11.9999 8.879V9H13.5709L18.9999 5.198V5ZM1.72389 5.71C1.44392 5.90427 1.18958 6.13307 0.966887 6.391L4.68989 9H6.42489L1.72389 5.71V5.71ZM6.43689 14L0.733887 18H2.46089L6.99989 14.822V14H6.43689ZM18.9999 17.802V16.582L15.3129 14H13.5699L18.9999 17.802Z" fill="#CF1B2B"/>
</g>
<defs>
<clipPath id="clip0_1752_12073">
<rect width="36" height="36" fill="white"/>
</clipPath>
</defs>
</svg>
