<svg width="48" height="48" viewBox="0 0 48 48" fill="none" xmlns="http://www.w3.org/2000/svg">
<g clip-path="url(#clip0_3451_29748)">
<path d="M24.0011 48C37.2352 48 48.0005 37.2332 48.0005 24C48.0005 10.7668 37.2352 0 24.0011 0C10.767 0 0.000488281 10.7662 0.000488281 24C0.000488281 37.2338 10.767 48 24.0011 48ZM24.0011 45.2185C18.0763 45.2185 12.7137 42.775 8.86085 38.8465C10.9816 35.7833 16.9563 33.5751 24.0005 33.5751C31.0453 33.5751 37.0206 35.7828 39.1413 38.8459C35.2873 42.775 29.9246 45.2185 24.0011 45.2185ZM35.4678 18.7421C35.4678 25.0753 30.335 30.2097 24.0005 30.2097C17.6677 30.2097 12.5332 25.0759 12.5332 18.7421C12.5332 12.4083 17.6677 7.27449 24.0005 7.27449C30.3344 7.27449 35.4678 12.4083 35.4678 18.7421Z" fill="#313EBF"/>
</g>
<defs>
<clipPath id="clip0_3451_29748">
<rect width="48" height="48" fill="white"/>
</clipPath>
</defs>
</svg>
