<svg width="180" height="45" viewBox="0 0 180 45" fill="none" xmlns="http://www.w3.org/2000/svg">
<path d="M52.4163 30.9576H65.2987V27.087H56.9949V12.5078H52.4163V30.9576Z" fill="#232122"/>
<path d="M72.9312 28.3772C71.0945 28.3772 70.1374 26.7774 70.1374 24.3776C70.1374 21.9779 71.0945 20.3522 72.9312 20.3522C74.7678 20.3522 75.7508 21.9779 75.7508 24.3776C75.7508 26.7774 74.7678 28.3772 72.9312 28.3772ZM72.957 31.3705C77.2253 31.3705 80.0191 28.3514 80.0191 24.3776C80.0191 20.4038 77.2253 17.3848 72.957 17.3848C68.7146 17.3848 65.8691 20.4038 65.8691 24.3776C65.8691 28.3514 68.7146 31.3705 72.957 31.3705Z" fill="#232122"/>
<path d="M87.4071 35.5253C89.3731 35.5253 91.1063 35.0866 92.2704 34.0545C93.331 33.0997 94.0294 31.6547 94.0294 29.6678V17.7464H89.994V19.1656H89.9422C89.1662 18.0561 87.9762 17.3594 86.2172 17.3594C82.9319 17.3594 80.6555 20.0946 80.6555 23.9652C80.6555 28.0164 83.4234 30.2355 86.3983 30.2355C88.0021 30.2355 89.011 29.5904 89.787 28.7131H89.8905V30.0291C89.8905 31.6289 89.1403 32.5579 87.3554 32.5579C85.9585 32.5579 85.2601 31.9644 85.0273 31.2677H80.9401C81.354 34.0287 83.7597 35.5253 87.4071 35.5253ZM87.3813 27.1132C85.8033 27.1132 84.7686 25.823 84.7686 23.8362C84.7686 21.8234 85.8033 20.5333 87.3813 20.5333C89.1403 20.5333 90.0716 22.0299 90.0716 23.8103C90.0716 25.6682 89.2179 27.1132 87.3813 27.1132Z" fill="#232122"/>
<path d="M102.327 28.3772C100.49 28.3772 99.5332 26.7774 99.5332 24.3776C99.5332 21.9779 100.49 20.3522 102.327 20.3522C104.164 20.3522 105.147 21.9779 105.147 24.3776C105.147 26.7774 104.164 28.3772 102.327 28.3772ZM102.353 31.3705C106.621 31.3705 109.415 28.3514 109.415 24.3776C109.415 20.4038 106.621 17.3848 102.353 17.3848C98.1104 17.3848 95.2649 20.4038 95.2649 24.3776C95.2649 28.3514 98.1104 31.3705 102.353 31.3705Z" fill="#232122"/>
<path d="M110.646 30.9576H114.863V17.746H110.646V30.9576ZM110.646 15.9139H114.863V12.5078H110.646V15.9139Z" fill="#232122"/>
<path d="M116.692 35.3189H120.908V29.5904H120.96C121.788 30.7 123.004 31.3709 124.711 31.3709C128.177 31.3709 130.479 28.6357 130.479 24.3522C130.479 20.3784 128.332 17.3594 124.814 17.3594C123.004 17.3594 121.71 18.1593 120.805 19.3463H120.727V17.7464H116.692V35.3189ZM123.624 28.1196C121.814 28.1196 120.779 26.6488 120.779 24.5071C120.779 22.3653 121.71 20.7397 123.547 20.7397C125.358 20.7397 126.211 22.2363 126.211 24.5071C126.211 26.752 125.228 28.1196 123.624 28.1196Z" fill="#232122"/>
<path d="M137.345 31.3709C140.812 31.3709 143.373 29.8743 143.373 26.9842C143.373 23.6039 140.631 23.0104 138.303 22.6234C136.621 22.3137 135.121 22.1847 135.121 21.2558C135.121 20.43 135.923 20.043 136.957 20.043C138.122 20.043 138.923 20.4042 139.079 21.5912H142.959C142.752 18.985 140.734 17.3594 136.983 17.3594C133.853 17.3594 131.266 18.8044 131.266 21.5912C131.266 24.6877 133.724 25.307 136.026 25.694C137.785 26.0037 139.389 26.1327 139.389 27.3197C139.389 28.1712 138.587 28.6357 137.32 28.6357C135.923 28.6357 135.043 27.9906 134.888 26.6746H130.904C131.034 29.5904 133.465 31.3709 137.345 31.3709Z" fill="#232122"/>
<path d="M149.099 31.3447C150.936 31.3447 152.1 30.6222 153.057 29.332H153.135V30.9577H157.17V17.7461H152.954V25.126C152.954 26.7 152.074 27.7838 150.626 27.7838C149.28 27.7838 148.634 26.9839 148.634 25.5389V17.7461H144.443V26.4162C144.443 29.3578 146.047 31.3447 149.099 31.3447Z" fill="#232122"/>
<path d="M159.005 30.958H163.221V23.5523C163.221 21.9783 163.997 20.8687 165.316 20.8687C166.584 20.8687 167.179 21.6944 167.179 23.1136V30.958H171.396V23.5523C171.396 21.9783 172.146 20.8687 173.491 20.8687C174.758 20.8687 175.353 21.6944 175.353 23.1136V30.958H179.57V22.3653C179.57 19.3979 178.07 17.3594 175.069 17.3594C173.362 17.3594 171.939 18.0819 170.904 19.6817H170.852C170.18 18.2625 168.86 17.3594 167.127 17.3594C165.213 17.3594 163.945 18.2625 163.118 19.6301H163.04V17.7464H159.005V30.958Z" fill="#232122"/>
<path fill-rule="evenodd" clip-rule="evenodd" d="M9.32789 4.18421C7.78586 5.25976 6.39145 6.5314 5.18098 7.9629C10.1275 7.5048 16.4119 8.25281 23.7081 11.8918C31.4994 15.7777 37.7733 15.9091 42.1397 15.0689C41.7434 13.8724 41.2446 12.7224 40.6538 11.6292C35.6556 12.155 29.2478 11.459 21.78 7.73451C17.038 5.36937 12.8579 4.39509 9.32789 4.18421ZM37.7341 7.48364C33.7869 3.08445 28.0507 0.315918 21.6662 0.315918C19.7913 0.315918 17.9721 0.554719 16.2379 1.00346C18.5867 1.64276 21.0819 2.57804 23.7081 3.88789C29.1756 6.61478 33.8959 7.49279 37.7341 7.48364ZM43.0732 19.269C37.7982 20.308 30.514 20.0946 21.78 15.7384C13.6147 11.6659 7.11583 11.7172 2.73274 12.6889C2.5065 12.739 2.28559 12.7916 2.07001 12.8465C1.49615 14.0914 1.03808 15.4005 0.709413 16.76C1.06045 16.6664 1.42319 16.5775 1.79745 16.4945C7.1149 15.3158 14.628 15.367 23.7081 19.8958C31.8735 23.9683 38.3724 23.917 42.7555 22.9454C42.9057 22.9121 43.0537 22.8777 43.1992 22.8423C43.2151 22.5033 43.2231 22.1621 43.2231 21.8191C43.2231 20.9563 43.1722 20.1053 43.0732 19.269ZM42.4953 27.3802C37.2716 28.2912 30.1995 27.9415 21.78 23.7424C13.6147 19.6699 7.11583 19.7212 2.73274 20.6928C1.75982 20.9084 0.884603 21.171 0.112533 21.4483C0.110428 21.5716 0.109375 21.6953 0.109375 21.8191C0.109375 33.695 9.76071 43.3224 21.6662 43.3224C31.6439 43.3224 40.0384 36.5606 42.4953 27.3802Z" fill="#232122"/>
</svg>
