<svg width="24" height="24" viewBox="0 0 24 24" fill="none" xmlns="http://www.w3.org/2000/svg">
<path d="M19.0799 4.82991C17.6796 3.42964 15.8956 2.47604 13.9533 2.0897C12.0111 1.70337 9.99793 1.90165 8.16839 2.65947C6.33884 3.41729 4.7751 4.70062 3.67492 6.34717C2.57473 7.99371 1.98751 9.92953 1.98751 11.9098C1.98751 13.8901 2.57473 15.8259 3.67492 17.4725C4.77511 19.119 6.33884 20.4023 8.16839 21.1602C9.99793 21.918 12.0111 22.1163 13.9533 21.7299C15.8956 21.3436 17.6796 20.39 19.0799 18.9897C20.9547 17.1105 22.0076 14.5643 22.0076 11.9098C22.0076 9.25529 20.9547 6.70915 19.0799 4.82991ZM14.5745 15.7716L12 13.1971L9.42549 15.7716C9.25479 15.9423 9.02327 16.0382 8.78186 16.0382C8.54046 16.0382 8.30894 15.9423 8.13824 15.7716C7.96754 15.6009 7.87164 15.3694 7.87164 15.128C7.87164 14.8865 7.96754 14.655 8.13824 14.4843L10.7127 11.9098L8.13824 9.3353C7.96754 9.1646 7.87164 8.93308 7.87164 8.69167C7.87164 8.45027 7.96754 8.21875 8.13824 8.04805C8.30894 7.87735 8.54046 7.78145 8.78186 7.78145C9.02327 7.78145 9.25479 7.87735 9.42549 8.04805L12 10.6226L14.5745 8.04805C14.7452 7.87735 14.9767 7.78145 15.2181 7.78145C15.4595 7.78145 15.6911 7.87735 15.8618 8.04805C16.0325 8.21875 16.1284 8.45027 16.1284 8.69167C16.1284 8.93308 16.0325 9.1646 15.8618 9.3353L13.2873 11.9098L15.8618 14.4843C16.0325 14.655 16.1284 14.8865 16.1284 15.128C16.1284 15.3694 16.0325 15.6009 15.8618 15.7716C15.6911 15.9423 15.4596 16.0382 15.2181 16.0382C14.9767 16.0382 14.7452 15.9423 14.5745 15.7716Z" fill="#E32626"/>
</svg>