<svg width="24" height="24" viewBox="0 0 24 24" fill="none" xmlns="http://www.w3.org/2000/svg">
<path d="M11.9998 0C18.627 0 24 5.37667 24 12.0092C24 13.9596 23.5353 15.8011 22.7106 17.4297L21.0918 16.4941C21.7591 15.1422 22.1339 13.6197 22.1339 12.0092C22.1339 6.40785 17.5973 1.86784 12.0002 1.86784C6.40265 1.86784 1.86608 6.40785 1.86608 12.0092C1.86608 15.2478 3.39781 18.2638 5.99334 20.1783V22.4077C2.28996 20.2604 0 16.3142 0 12.0092C0 5.37703 5.37297 0 12.0005 0L11.9998 0ZM22.0444 18.581C21.7129 19.0877 21.3441 19.5677 20.9415 20.0175L19.6201 18.6948C19.9104 18.3638 20.1797 18.0132 20.4256 17.6458L22.0444 18.581V18.581ZM20.0017 20.9584C19.5526 21.3609 19.0729 21.73 18.5666 22.0618L17.6318 20.4417C17.9992 20.1957 18.3492 19.9262 18.6803 19.6357L20.0017 20.9584ZM17.4158 22.7281C16.8803 22.9994 16.3214 23.2323 15.7433 23.4222L15.2598 21.6148C15.6801 21.4722 16.088 21.3022 16.4813 21.1077L17.4158 22.7281ZM14.4593 23.7657C13.8755 23.8873 13.2761 23.9666 12.6642 24V22.1297C13.1098 22.1005 13.5472 22.0429 13.9753 21.9583L14.4593 23.7657Z" fill="#232122"/>
</svg>
