<svg width="32" height="32" viewBox="0 0 32 32" fill="none" xmlns="http://www.w3.org/2000/svg">
<circle cx="16" cy="16" r="16" fill="#313EBF"/>
<path d="M12.9162 10.532L18.5124 15.9818L12.9159 21.4685C12.6626 21.7105 12.5666 22.0079 12.5953 22.2986C12.6233 22.5811 12.7665 22.8404 12.9601 23.034C13.154 23.2278 13.4141 23.3718 13.6979 23.4054C13.989 23.4398 14.2927 23.3557 14.5466 23.1138L14.5467 23.1138L14.5489 23.1116L21.1227 16.6889L21.1227 16.689L21.1248 16.6869C21.306 16.5057 21.4028 16.2557 21.4149 16.0126C21.4271 15.7691 21.3551 15.5058 21.1626 15.3133L21.1626 15.3133L21.16 15.3107L14.5484 8.88807L14.5484 8.88806L14.5466 8.88635C14.2927 8.64451 13.989 8.56036 13.6979 8.5948C13.4141 8.62837 13.154 8.77235 12.9601 8.96617C12.7665 9.1598 12.6233 9.41906 12.5953 9.70158C12.5666 9.99242 12.6627 10.2899 12.9162 10.532Z" fill="white" stroke="white" stroke-width="0.5"/>
</svg>
